<svg width="24" height="22" viewBox="0 0 24 22" fill="none" xmlns="http://www.w3.org/2000/svg">
<path d="M23.9227 6.4934C23.9093 5.56967 23.7203 4.65512 23.3643 3.79066C23.0556 3.0615 22.584 2.39929 21.9798 1.84634C21.3756 1.29339 20.652 0.861865 19.8552 0.579333C18.9227 0.259001 17.9376 0.0857916 16.9418 0.0670807C15.6597 0.0146358 15.2532 0 11.9987 0C8.74411 0 8.32697 8.17837e-08 7.0542 0.0670807C6.05885 0.0859291 5.07421 0.259136 4.14216 0.579333C3.34526 0.861668 2.62153 1.29312 2.01728 1.8461C1.41303 2.39907 0.941567 3.06139 0.633052 3.79066C0.282316 4.64336 0.093456 5.54465 0.0746335 6.45559C0.0173256 7.63012 0 8.00211 0 10.9805C0 13.9589 -9.92969e-09 14.3394 0.0746335 15.5054C0.0946246 16.4177 0.282541 17.3178 0.633052 18.1727C0.942085 18.9018 1.4139 19.5639 2.01835 20.1166C2.6228 20.6693 3.3466 21.1006 4.14349 21.3829C5.07299 21.7161 6.0578 21.9017 7.05553 21.9317C8.33896 21.9841 8.74545 22 12 22C15.2546 22 15.6717 22 16.9445 21.9317C17.9402 21.9138 18.9254 21.7409 19.8578 21.4207C20.6544 21.1378 21.3778 20.7062 21.982 20.1533C22.5862 19.6004 23.0579 18.9383 23.3669 18.2093C23.7175 17.3556 23.9054 16.4555 23.9254 15.542C23.9827 14.3687 24 13.9967 24 11.0171C23.9973 8.0387 23.9973 7.66061 23.9227 6.4934ZM11.9907 16.6128C8.58685 16.6128 5.82941 14.0894 5.82941 10.9744C5.82941 7.85941 8.58685 5.33596 11.9907 5.33596C13.6247 5.33596 15.1919 5.93001 16.3473 6.98742C17.5028 8.04483 18.1519 9.47898 18.1519 10.9744C18.1519 12.4698 17.5028 13.9039 16.3473 14.9614C15.1919 16.0188 13.6247 16.6128 11.9907 16.6128ZM18.3972 6.44218C17.6015 6.44218 16.9605 5.85431 16.9605 5.1274C16.9605 4.95482 16.9976 4.78393 17.0698 4.62449C17.1419 4.46504 17.2477 4.32017 17.3811 4.19814C17.5144 4.07611 17.6727 3.97931 17.8469 3.91326C18.0212 3.84722 18.2079 3.81323 18.3965 3.81323C18.5851 3.81323 18.7718 3.84722 18.946 3.91326C19.1203 3.97931 19.2786 4.07611 19.4119 4.19814C19.5453 4.32017 19.651 4.46504 19.7232 4.62449C19.7954 4.78393 19.8325 4.95482 19.8325 5.1274C19.8325 5.85431 19.1901 6.44218 18.3972 6.44218Z" fill="#114E86"/>
<path d="M11.9907 14.6372C14.2011 14.6372 15.9929 12.9974 15.9929 10.9746C15.9929 8.95181 14.2011 7.31201 11.9907 7.31201C9.78033 7.31201 7.98847 8.95181 7.98847 10.9746C7.98847 12.9974 9.78033 14.6372 11.9907 14.6372Z" fill="#114E86"/>
</svg>
