<svg width="70" height="63" viewBox="0 0 70 63" fill="none" xmlns="http://www.w3.org/2000/svg">
<path d="M60.6926 8.89703L57.274 26.5002C57.2669 26.5354 57.2696 26.5718 57.2813 26.6057C57.2928 26.6396 57.3133 26.6696 57.3403 26.6928C57.3673 26.7159 57.3999 26.7313 57.4345 26.7372C57.4695 26.7432 57.5053 26.7396 57.5381 26.7267L61.1931 25.3262C61.2019 25.3779 61.2107 25.4313 61.2189 25.4808C62.0965 31.1031 61.4534 36.8621 59.3586 42.1413C57.2634 47.4204 53.7955 52.0207 49.326 55.4497C44.8563 58.8784 39.5535 61.0067 33.9852 61.6065C28.4171 62.2063 22.7933 61.255 17.7162 58.8543C23.0399 61.856 29.0858 63.277 35.1651 62.9553C41.2445 62.6336 47.1129 60.5827 52.1013 57.0355C57.0899 53.4883 60.9982 48.5881 63.3807 42.8927C65.7632 37.1975 66.5246 30.9363 65.5774 24.8228L69.7868 25.1702C69.8226 25.173 69.8581 25.166 69.8904 25.1498C69.9224 25.1336 69.9494 25.1089 69.9687 25.0782C69.9881 25.0476 69.9987 25.0122 69.9999 24.9758C70.0007 24.9395 69.9922 24.9035 69.9746 24.8718L61.058 8.83616C61.0381 8.80056 61.0079 8.77203 60.9715 8.75439C60.9351 8.73676 60.8943 8.73085 60.8546 8.73747C60.8147 8.7441 60.778 8.76296 60.749 8.79146C60.7199 8.81998 60.7002 8.85684 60.6926 8.89703Z" fill="url(#paint0_linear_322_28)"/>
<path d="M54.1633 45.6219C51.4019 49.1927 47.8553 52.0556 43.8088 53.981C39.762 55.9063 35.3278 56.8406 30.8619 56.7087C26.3958 56.5768 22.0224 55.3826 18.0925 53.2218C14.1626 51.0607 10.7855 47.9934 8.2325 44.2657C5.67943 40.5383 4.02136 36.254 3.39132 31.757C2.76131 27.2601 3.17687 22.6757 4.60471 18.3716C6.03251 14.0675 8.4328 10.1635 11.613 6.97304C14.7932 3.78254 18.6647 1.39431 22.9169 0C17.4375 1.36911 12.447 4.27638 8.51458 8.39015C4.58216 12.5039 1.86624 17.6586 0.676627 23.266C-0.512992 28.8734 -0.128405 34.7079 1.78652 40.1038C3.70145 45.4999 7.0696 50.2398 11.5068 53.7834C15.9439 57.327 21.2714 59.5314 26.8814 60.1449C32.4915 60.7584 38.1582 59.7567 43.2353 57.2536C48.3123 54.7506 52.595 50.8474 55.5951 45.989C58.5949 41.1306 60.1914 35.5127 60.2022 29.7764C59.7992 35.5548 57.695 41.076 54.1633 45.6219Z" fill="url(#paint1_linear_322_28)"/>
<path d="M47.88 14.9372C46.1192 17.2173 44.1168 19.2934 41.9089 21.128C41.8866 21.1467 41.8684 21.1702 41.8561 21.1968C41.8438 21.2234 41.8373 21.2526 41.8373 21.282V49.7654C41.8373 49.9946 41.7657 50.2178 41.6327 50.4028C41.4998 50.5881 41.3125 50.7254 41.0979 50.7952L41.0751 50.8027C40.916 50.8546 40.7472 50.8674 40.5822 50.8403C40.4173 50.8134 40.2608 50.7469 40.1261 50.6469C39.9911 50.5467 39.8813 50.4156 39.8056 50.2644C39.7298 50.1128 39.6905 49.9454 39.6905 49.7756V23.2202C39.6905 23.1837 39.6808 23.1478 39.6623 23.1166C39.6438 23.0853 39.6171 23.0599 39.5851 23.043C39.5534 23.0261 39.5176 23.0184 39.4818 23.0208C39.446 23.0231 39.4114 23.0354 39.382 23.0563C36.4586 25.1028 33.2715 26.7295 29.911 27.8906C29.8722 27.9038 29.8385 27.9292 29.8144 27.963C29.7906 27.9969 29.7777 28.0375 29.7777 28.0792V51.0832C29.7777 51.2428 29.7428 51.4007 29.6756 51.5448C29.6084 51.6893 29.5106 51.8167 29.3894 51.9181C29.2679 52.0196 29.126 52.0921 28.9736 52.1312C28.8213 52.17 28.6624 52.1742 28.5083 52.1431L28.4666 52.1348C28.2262 52.0864 28.0099 51.9545 27.8546 51.7618C27.6993 51.569 27.6148 51.3276 27.6154 51.0784C27.6209 48.6016 27.6265 45.2669 27.6306 45.2693V28.8619C27.6306 28.8313 27.6237 28.8011 27.6104 28.7736C27.5971 28.7462 27.5777 28.7222 27.5538 28.7036C27.5299 28.685 27.5021 28.6723 27.4726 28.6663C27.443 28.6604 27.4125 28.6614 27.3835 28.6694L27.2863 28.6954C24.5448 29.4278 22.119 31.0626 20.3879 33.3446C18.6568 35.6268 17.7178 38.4274 17.7176 41.3091V45.0873C17.7181 45.2982 17.6577 45.505 17.5439 45.6814C17.4302 45.8581 17.268 45.9968 17.0774 46.0807C16.8869 46.1642 16.6764 46.1896 16.4719 46.1529C16.2675 46.1165 16.078 46.0198 15.9271 45.8748C11.7164 41.7603 9.03903 36.289 8.3512 30.3927C7.66336 24.4966 9.00757 18.5403 12.1548 13.5387C15.3021 8.53702 20.0577 4.79948 25.6115 2.96272C31.1652 1.12597 37.1736 1.30365 42.6131 3.4655C38.3303 1.39564 33.5809 0.528533 28.8573 0.954124C24.1337 1.37971 19.6083 3.08249 15.7503 5.8858C11.8923 8.68915 8.84249 12.4909 6.91708 16.8966C4.99171 21.3024 4.26093 26.1517 4.8006 30.9415C5.34026 35.7309 7.13071 40.2868 9.9862 44.1356C12.8417 47.9848 16.6582 50.9868 21.0397 52.8307C25.4213 54.6742 30.2083 55.2926 34.9041 54.6214C39.6001 53.95 44.0334 52.0133 47.745 49.0125C49.0397 48.1042 50.2476 47.0738 51.3518 45.9347L51.4677 45.8085C51.6506 45.6092 51.7522 45.3466 51.7516 45.0738V9.94098C51.7516 9.94098 51.7516 9.81564 51.7516 9.64943C51.7519 9.605 51.7375 9.56173 51.7111 9.52642C51.6843 9.49115 51.6471 9.46585 51.6048 9.45454C51.5625 9.44323 51.5176 9.44654 51.4774 9.46394C51.4372 9.48133 51.404 9.51183 51.3826 9.55066C50.3615 11.4403 49.19 13.2418 47.88 14.9372Z" fill="url(#paint2_linear_322_28)"/>
<defs>
<linearGradient id="paint0_linear_322_28" x1="17.7162" y1="35.8675" x2="69.9999" y2="35.8675" gradientUnits="userSpaceOnUse">
<stop stop-color="#403BEB"/>
<stop offset="1" stop-color="#22B7A0"/>
</linearGradient>
<linearGradient id="paint1_linear_322_28" x1="-3.67702e-08" y1="30.1602" x2="60.2022" y2="30.1602" gradientUnits="userSpaceOnUse">
<stop stop-color="#403BEB"/>
<stop offset="1" stop-color="#22B7A0"/>
</linearGradient>
<linearGradient id="paint2_linear_322_28" x1="4.62795" y1="27.8666" x2="51.7516" y2="27.8666" gradientUnits="userSpaceOnUse">
<stop stop-color="#403BEB"/>
<stop offset="1" stop-color="#22B7A0"/>
</linearGradient>
</defs>
</svg>
