<svg width="22" height="24" viewBox="0 0 22 24" fill="none" xmlns="http://www.w3.org/2000/svg">
<path d="M11 0C17.0754 0 22 4.42202 22 9.87736C22 14.0512 18.7338 18.5998 12.2862 23.5719C11.9276 23.8485 11.4705 24.0004 10.9979 24C10.5252 23.9996 10.0684 23.847 9.71046 23.5699L9.284 23.2376C3.12174 18.3952 0 13.958 0 9.87736C0 4.42202 4.92462 0 11 0ZM11 6.07837C9.87793 6.07837 8.80182 6.47862 8.0084 7.19107C7.21497 7.90352 6.76923 8.8698 6.76923 9.87736C6.76923 10.8849 7.21497 11.8512 8.0084 12.5636C8.80182 13.2761 9.87793 13.6763 11 13.6763C12.1221 13.6763 13.1982 13.2761 13.9916 12.5636C14.785 11.8512 15.2308 10.8849 15.2308 9.87736C15.2308 8.8698 14.785 7.90352 13.9916 7.19107C13.1982 6.47862 12.1221 6.07837 11 6.07837Z" fill="white"/>
</svg>
