<svg width="32" height="20" viewBox="0 0 32 20" fill="none" xmlns="http://www.w3.org/2000/svg">
<path d="M32 17.5V2.5C32 1.11667 30.7396 0 29.1781 0H2.82187C1.26044 0 0 1.11667 0 2.5V17.5C0 18.8833 1.26044 20 2.82187 20H29.1781C30.7396 20 32 18.8833 32 17.5ZM29.5356 2.31667C30.1564 2.86667 29.8178 3.43333 29.4791 3.71667L21.8413 9.91667L29.1781 16.6833C29.4039 16.9167 29.5544 17.2833 29.291 17.5333C29.0464 17.8 28.4821 17.7833 28.2375 17.6167L20.0165 11.4L15.9906 14.65L11.9835 11.4L3.76249 17.6167C3.51793 17.7833 2.95356 17.8 2.70899 17.5333C2.44562 17.2833 2.59612 16.9167 2.82187 16.6833L10.1587 9.91667L2.52087 3.71667C2.18225 3.43333 1.84362 2.86667 2.46443 2.31667C3.08524 1.76667 3.72487 2.03333 4.25162 2.43333L15.9906 10.8333L27.7484 2.43333C28.2751 2.03333 28.9148 1.76667 29.5356 2.31667Z" fill="white"/>
</svg>
