<svg width="22" height="24" viewBox="0 0 22 24" fill="none" xmlns="http://www.w3.org/2000/svg">
<path d="M14.6676 17.0566L16.562 14.9892C16.8172 14.7142 17.14 14.5259 17.4913 14.4473C17.8426 14.3686 18.2072 14.403 18.541 14.5461L20.8498 15.5522C21.1871 15.7016 21.4763 15.9566 21.681 16.2851C21.8857 16.6136 21.9967 17.0009 22 17.3981V22.013C21.998 22.2833 21.946 22.5502 21.847 22.7979C21.748 23.0456 21.6041 23.2689 21.4239 23.4543C21.2438 23.6397 21.0311 23.7834 20.7987 23.8767C20.5663 23.9701 20.3191 24.0111 20.0718 23.9974C3.89312 22.8991 0.628639 7.94686 0.0112629 2.22441C-0.0173962 1.9434 0.00878882 1.65895 0.0880951 1.38977C0.167401 1.1206 0.298031 0.872797 0.471392 0.662676C0.644752 0.452554 0.856914 0.284873 1.09392 0.170663C1.33092 0.0564526 1.5874 -0.0016975 1.84648 3.77211e-05H5.93131C6.29582 0.00121524 6.65168 0.121379 6.9531 0.345073C7.25453 0.568768 7.48774 0.885763 7.62275 1.25529L8.54458 3.77501C8.68011 4.1378 8.71469 4.53614 8.644 4.92025C8.5733 5.30436 8.40047 5.65723 8.14709 5.93478L6.25268 8.00224C6.25268 8.00224 7.34366 16.0598 14.6676 17.0566Z" fill="white"/>
</svg>
