<svg width="48" height="48" viewBox="0 0 48 48" fill="none" xmlns="http://www.w3.org/2000/svg">
<path d="M13.596 48C5.42728 48 0 42.1697 0 33.8016L0 14.1984C0 5.8391 5.44344 0 13.596 0L34.4016 0C42.5707 0 48 5.83081 48 14.1984L48 33.8016C48 42.1692 42.5707 48 34.4016 48L13.596 48ZM13.596 44.4L34.4016 44.4C40.5228 44.4 44.4 40.2361 44.4 33.8016L44.4 14.1984C44.4 7.76391 40.5228 3.6 34.4016 3.6L13.596 3.6C7.4903 3.6 3.6 7.77308 3.6 14.1984L3.6 33.8016C3.6 40.2368 7.47542 44.4 13.596 44.4ZM24 35.6064C23.0887 35.6064 22.3356 34.9292 22.2164 34.0506L22.2 33.8064L22.2 18.5568L16.2803 24.4966C15.6426 25.137 14.6428 25.1972 13.937 24.6758L13.7347 24.502C13.0943 23.8643 13.0341 22.8644 13.5554 22.1587L13.7293 21.9564L22.7245 12.9228C22.7835 12.8645 22.8436 12.8119 22.9069 12.7634L22.7245 12.9228C22.8128 12.8341 22.908 12.7566 23.0084 12.6902C23.0442 12.6674 23.0813 12.6448 23.1192 12.6234C23.1487 12.606 23.1783 12.5905 23.2081 12.5759C23.2515 12.5554 23.2973 12.5351 23.3441 12.5168C23.3762 12.5037 23.4066 12.4928 23.4372 12.4827C23.4851 12.4675 23.5358 12.4532 23.5873 12.4411C23.6159 12.4339 23.6439 12.428 23.672 12.4228C23.7207 12.4144 23.7713 12.4072 23.8226 12.4022C23.8586 12.3981 23.8939 12.3956 23.9292 12.3943C23.9525 12.3941 23.9762 12.3936 24 12.3936L24.0684 12.3942C24.1053 12.3956 24.1422 12.3981 24.179 12.4017L24 12.3936C24.1124 12.3936 24.2224 12.4039 24.3292 12.4236C24.3561 12.428 24.3841 12.4339 24.412 12.4404C24.4642 12.4532 24.5149 12.4675 24.5646 12.4839C24.5934 12.4928 24.6238 12.5037 24.6539 12.5154C24.7027 12.5351 24.7485 12.5554 24.7933 12.5774C24.8217 12.5905 24.8513 12.606 24.8805 12.6224C24.9187 12.6448 24.9558 12.6674 24.992 12.6914C25.0192 12.7085 25.0465 12.7276 25.0734 12.7476L25.0931 12.7634C25.1564 12.8119 25.2165 12.8645 25.2728 12.9208L25.2755 12.9228L34.2707 21.9564C34.9721 22.6608 34.9697 23.8005 34.2653 24.502C33.6249 25.1397 32.6248 25.1956 31.9212 24.6713L31.7197 24.4966L25.8 18.552L25.8 33.8064C25.8 34.8005 24.9941 35.6064 24 35.6064Z" fill="#114E86"/>
</svg>
